# xmcd
#
# Track frame offsets:
#	150
#	15720
#	33799
#	51994
#	71972
#	89552
#	106069
#	128387
#	145705
#	161187
#	181037
#	194308
#
# Disc length: 2811 seconds
#
# Revision: 1
# Processed by: cddbd v1.5.2PL0 Copyright (c) Steve Scherf et al.
# Submitted via: EasyCDDAExtractor 15.3.0.1
#
DISCID=9c0af90c
DTITLE=Melina Leon - Vas A Pagar Y Sus Exitos
DYEAR=2007
DGENRE=Latin
TTITLE0=Vas A Pagar
TTITLE1=Que Dolor Que Pena
TTITLE2=Baño De Luna
TTITLE3=Un Hombre De Verdad
TTITLE4=Que Sera De Ti
TTITLE5=Corazon De Mujer
TTITLE6=Cuando Una Mujer
TTITLE7=La Persona Equivocada
TTITLE8=Quiero Ser Tuya
TTITLE9=Cuando Nos Quema El Deseo
TTITLE10=Desvelo De Amor
TTITLE11=Vas A Pagar (Merengue Version)
EXTD=
EXTT0=
EXTT1=
EXTT2=
EXTT3=
EXTT4=
EXTT5=
EXTT6=
EXTT7=
EXTT8=
EXTT9=
EXTT10=
EXTT11=
PLAYORDER=
